<?xml version="1.0" encoding="UTF-8" standalone="no"?>
<!-- Created with Inkscape (http://www.inkscape.org/) -->

<svg
   xmlns:dc="http://purl.org/dc/elements/1.1/"
   xmlns:cc="http://creativecommons.org/ns#"
   xmlns:rdf="http://www.w3.org/1999/02/22-rdf-syntax-ns#"
   xmlns:svg="http://www.w3.org/2000/svg"
   xmlns="http://www.w3.org/2000/svg"
   xmlns:sodipodi="http://sodipodi.sourceforge.net/DTD/sodipodi-0.dtd"
   xmlns:inkscape="http://www.inkscape.org/namespaces/inkscape"
   id="svg2985"
   version="1.1"
   inkscape:version="0.48.2 r9819"
   width="350"
   height="350"
   sodipodi:docname="ToyBlocksLogoLarge.png">
  <metadata
     id="metadata2991">
    <rdf:RDF>
      <cc:Work
         rdf:about="">
        <dc:format>image/svg+xml</dc:format>
        <dc:type
           rdf:resource="http://purl.org/dc/dcmitype/StillImage" />
        <dc:title></dc:title>
      </cc:Work>
    </rdf:RDF>
  </metadata>
  <defs
     id="defs2989" />
  <sodipodi:namedview
     pagecolor="#ffffff"
     bordercolor="#666666"
     borderopacity="1"
     objecttolerance="10"
     gridtolerance="10"
     guidetolerance="10"
     inkscape:pageopacity="0"
     inkscape:pageshadow="2"
     inkscape:window-width="848"
     inkscape:window-height="565"
     id="namedview2987"
     showgrid="false"
     inkscape:zoom="0.67428571"
     inkscape:cx="175"
     inkscape:cy="175"
     inkscape:window-x="809"
     inkscape:window-y="58"
     inkscape:window-maximized="0"
     inkscape:current-layer="svg2985" />
  <g
     id="g2995"
     transform="translate(1.483051,1.4830508)">
    <path
       style="fill:#fcfcfb"
       d="M 0,175 0,0 l 175,0 175,0 0,175 0,175 -175,0 -175,0 0,-175 z"
       id="path3011"
       inkscape:connector-curvature="0" />
    <path
       style="fill:#e4ad9a"
       d="M 196.58542,347.75839 C 191.0475,346.29431 184.74737,339.6956 182.94073,333.46705 181.74879,329.35771 181.5,316.67138 181.5,260 l 0,-68.5 2.29885,-4.98754 c 2.7378,-5.93991 5.36816,-8.92478 9.29993,-10.55337 1.59567,-0.66095 2.90122,-1.5762 2.90122,-2.03389 0,-0.45769 -20.8125,-0.9656 -46.25,-1.12868 L 103.5,172.5 99,170 c -3.538462,-1.96581 -5.141026,-3.78205 -7.5,-8.5 l -3,-6 0,-68.5 0,-68.5 2.621666,-5.590524 c 2.943588,-6.2770017 6.120696,-8.966873 13.405424,-11.3495872 4.43876,-1.45184324 12.0143,-1.59960162 68.97964,-1.34542438 L 237.5,0.5 242.49855,3 c 5.83405,2.9178647 8.92765,7.097228 10.42643,14.085775 C 253.6285,20.366193 254,44.298378 254,86.339122 c 0,54.238178 -0.23655,65.148858 -1.51924,70.073428 -1.80405,6.92622 -4.48181,10.98485 -8.8096,13.35254 -3.05875,1.67341 -1.57602,1.75263 41.82884,2.23491 44.25121,0.49168 45.08259,0.53808 49.96346,2.78819 6.16201,2.84074 8.17029,4.63126 10.89295,9.71181 2.13496,3.9839 2.14359,4.29186 2.14359,76.5 l 0,72.5 -2.24077,4.19207 c -2.68132,5.01625 -7.30551,8.71443 -12.75923,10.20415 -5.34932,1.4612 -131.34597,1.33436 -136.91458,-0.13783 z m 84.83385,-27.72091 c 7.97315,-2.75624 14.55498,-7.13473 20.49504,-13.63411 5.27704,-5.77391 10.70287,-15.59574 9.60068,-17.37912 -0.36749,-0.59461 -4.69793,-3.10498 -9.62321,-5.5786 l -8.95505,-4.4975 -1.71836,3.21744 c -3.09284,5.79098 -10.09731,12.53604 -15.37659,14.80713 -6.01158,2.58611 -14.896,2.86712 -20.22683,0.63976 -5.78109,-2.4155 -13.04166,-9.9635 -16.23543,-16.87817 C 236.65689,274.83968 236.5,273.76445 236.5,261 c 0,-12.69422 0.16726,-13.85812 2.80226,-19.5 11.04798,-23.65513 37.27721,-25.0669 51.09197,-2.75 1.44697,2.3375 2.89345,4.25 3.21439,4.25 1.12201,0 17.36983,-9.15612 17.96943,-10.12629 1.10381,-1.78601 -4.68981,-11.88042 -10.29104,-17.93042 -10.48629,-11.32644 -27.68325,-17.3283 -42.85337,-14.95612 C 231.13259,204.25628 214,227.6706 214,260.71256 c 0,13.59926 1.88817,23.03462 6.59465,32.95412 11.07291,23.33753 37.03641,34.59413 60.82462,26.3708 z M 156.78472,140.27366 c 0.34741,-12.47778 -0.54403,-16.64873 -3.65498,-17.10122 -1.23862,-0.18016 -2.46379,-0.8794 -2.72261,-1.55385 -0.49785,-1.29738 3.9225,-12.09414 5.2896,-12.91991 0.4418,-0.26686 7.75092,-0.64573 16.24249,-0.84194 l 15.43923,-0.35674 2.33067,6 c 2.75365,7.08889 2.63161,8.71183 -0.71437,9.49986 -2.48515,0.5853 -2.49582,0.63818 -2.77342,13.74316 l -0.27867,13.1556 3.27867,0.59589 c 1.80327,0.32774 10.47867,0.46305 19.27867,0.30069 l 16,-0.2952 0.28166,-12.35939 c 0.3023,-13.26543 -0.15069,-14.80823 -4.50148,-15.33125 C 217.84573,122.51671 217.14709,120.85246 207.34663,92 201.64858,75.225 194.01207,52.8375 190.37661,42.25 L 183.76668,23 l -12.76394,0 -12.76394,0 -9.7854,28.75 c -25.7048,75.52208 -23.87078,70.69443 -27.07024,71.25655 l -2.88316,0.50655 -0.54578,11.99345 c -0.30018,6.5964 -0.37437,12.53033 -0.16486,13.18652 0.60998,1.91046 2.72938,2.10553 21.21064,1.95216 L 156.5,150.5 156.78472,140.27366 z M 162.25,94.294267 c -1.2375,-0.238353 -2.24127,-0.964571 -2.23061,-1.613818 0.0232,-1.410452 9.75597,-28.789141 10.49797,-29.531147 0.28379,-0.283783 0.99299,-0.03895 1.57601,0.544067 1.32907,1.329072 9.90663,25.795118 9.90663,28.257 0,1.038315 -0.9638,2.074657 -2.25,2.419345 -2.46947,0.661792 -13.92884,0.612388 -17.5,-0.07545 z M 13.759081,346.59149 C 8.3776394,344.65009 5.2424005,342.37307 3.6375702,339.24058 0.10608772,332.34744 -0.1346134,326.71566 0.18554487,258.47215 L 0.5,191.4443 3.0579553,186.47487 c 2.1094195,-4.09805 3.5874368,-5.49597 8.4289877,-7.97216 l 5.871032,-3.00271 65.071012,0 c 60.781053,0 65.385303,0.12126 69.838213,1.83928 5.96648,2.30198 9.20888,6.45413 11.24433,14.39925 1.36378,5.32335 1.53124,14.81898 1.27887,72.51567 l -0.2904,66.39021 -3.00271,5.86984 c -2.47588,4.83994 -3.87463,6.31865 -7.97213,8.42779 l -4.96941,2.55796 -65.527873,0.22053 c -52.916459,0.17809 -66.24785,-0.0392 -69.268796,-1.12904 z m 78.792792,-21.58016 c 12.081197,-1.27328 21.006557,-4.1664 28.641427,-9.284 18.79015,-12.59489 19.40691,-35.00632 1.34723,-48.95416 -3.0431,-2.35024 -5.53462,-4.81456 -5.53672,-5.47625 -0.002,-0.6617 1.56062,-1.94545 3.47269,-2.85279 1.91208,-0.90734 5.11278,-3.46088 7.11268,-5.67452 11.16019,-12.353 10.33779,-28.92825 -2.01496,-40.61097 -6.09531,-5.7647 -10.31562,-8.08281 -20.58632,-11.3076 C 97.732851,198.57311 96.427155,198.5 63,198.5 l -34.5,0 0,12.99018 0,12.99018 3,0.51964 3,0.51964 0,35.98036 0,35.98036 -3,0.51813 -3,0.51813 -0.282701,12.4812 c -0.246106,10.86551 -0.05955,12.64436 1.441129,13.74168 2.115371,1.5468 48.878553,1.74891 62.893445,0.27183 z M 61.748491,297.41516 c -1.351446,-1.35145 -0.889758,-27.20791 0.501509,-28.08657 2.13083,-1.34574 22.318472,-1.60905 29.359351,-0.38293 11.579859,2.01654 18.394639,6.99754 18.386909,13.4392 -0.006,5.01242 -3.21959,9.08698 -9.66166,12.2502 -5.561812,2.73099 -6.582728,2.88045 -21.836109,3.19676 -8.80083,0.18251 -16.33833,-0.005 -16.75,-0.41666 z m 0,-43 C 61.336821,254.00349 61,247.65254 61,240.30195 c 0,-11.78788 0.206474,-13.44951 1.75,-14.08333 0.9625,-0.39524 8.5,-0.69229 16.75,-0.66011 13.444373,0.0524 15.546863,0.29959 20.27308,2.38308 13.47548,5.94046 13.74282,17.22111 0.56152,23.69347 -5.561812,2.73099 -6.582728,2.88045 -21.836109,3.19676 -8.80083,0.18251 -16.33833,-0.005 -16.75,-0.41666 z"
       id="path3009"
       inkscape:connector-curvature="0" />
    <path
       style="fill:#aaaa9c"
       d="m 198.23559,348.02099 c -5.53834,-1.31364 -10.7602,-5.49796 -13.33542,-10.6858 L 182.5,332.5 182.22328,263.59783 c -0.23919,-59.55754 -0.0685,-69.61844 1.2586,-74.1835 1.84443,-6.34462 5.33175,-10.73283 10.89391,-13.70818 L 198.5,173.5 152,173 c -45.32416,-0.48736 -46.62105,-0.55589 -51.28709,-2.71018 -4.062039,-1.87542 -5.163945,-3.03333 -7.275206,-7.64493 l -2.488112,-5.43475 0.03647,-67.355069 C 91.010574,44.591496 91.379035,21.188057 92.10947,18.5 93.669209,12.760039 97.586692,8.0843603 102.89153,5.6311629 107.44621,3.5248758 108.26454,3.5 173,3.5 c 74.81605,0 71.34645,-0.3594234 76.4607,7.920738 l 3.0393,4.920739 0.30399,68.579261 c 0.21974,49.571952 -0.0152,69.687892 -0.84748,72.579262 -1.54245,5.35818 -5.26157,10.09166 -9.76018,12.42221 -2.60041,1.34717 -3.2516,2.0812 -2.19633,2.47575 0.825,0.30846 21.975,0.6826 47,0.83144 44.40679,0.2641 45.59611,0.32232 49.5,2.42328 4.63539,2.49463 7.5101,5.43013 10.13303,10.34732 1.77259,3.32306 1.86697,7.11465 1.86697,75 l 0,71.5 -2.33583,4.74302 c -1.2847,2.60866 -3.67979,5.70001 -5.32242,6.86966 -6.76715,4.81864 -7.96144,4.89408 -75.75068,4.78496 -34.97509,-0.0563 -65.06005,-0.45079 -66.85548,-0.87665 z m 83.82223,-22.30827 c 9.00063,-3.06843 17.26928,-8.2469 22.81789,-14.29033 4.97716,-5.42102 11.13608,-15.99203 11.10617,-19.06237 -0.0101,-1.03809 -1.34546,0.5482 -3.02189,3.58979 -1.65208,2.9974 -4.4835,7.3491 -6.29205,9.67044 -11.91499,15.29342 -33.66285,23.4444 -51.54992,19.32061 -6.05876,-1.39682 -6.39273,-0.38962 -0.47363,1.42843 7.47337,2.29545 19.60669,2.00485 27.41343,-0.65657 z M 249,323.60699 c 0,-0.21616 -0.69837,-0.661 -1.55194,-0.98855 -0.88992,-0.34149 -1.29132,-0.17385 -0.94098,0.39301 0.58726,0.95021 2.49292,1.40545 2.49292,0.59554 z m 29.0685,-2.21943 c 13.84098,-4.10893 25.29439,-13.1083 31.4315,-24.6969 3.77641,-7.13092 3.4042,-7.80253 -7.54877,-13.62076 l -8.33977,-4.43009 -2.05573,2.84298 c -6.56062,9.07303 -8.5734,11.2517 -12.82124,13.87794 -3.62914,2.24372 -6.28468,3.01723 -11.68512,3.40363 -6.13564,0.439 -7.65537,0.17385 -12.45063,-2.17225 C 242.964,290.89976 236,277.57287 236,261 c 0,-16.22618 6.68139,-29.09924 18.27656,-35.21353 5.91826,-3.12077 16.52862,-3.12077 22.44688,0 5.35381,2.82314 10.68563,8.13489 13.29011,13.24009 1.1149,2.18539 2.69723,3.97344 3.51627,3.97344 0.81905,0 5.3533,-2.08929 10.07611,-4.64287 8.39779,-4.54061 8.57352,-4.7113 7.97823,-7.75 -0.9406,-4.80139 -9.10804,-16.00132 -14.8834,-20.40945 -6.88819,-5.25753 -12.30558,-7.89212 -19.91928,-9.68716 -27.81171,-6.55704 -53.46203,10.77275 -61.40977,41.48948 -2.29069,8.85315 -2.28377,29.02 0.0132,38.5 5.01358,20.69182 18.8825,35.9347 37.30283,40.99831 6.77655,1.86283 18.91111,1.80988 25.38075,-0.11075 z M 250.57505,235.1054 c 5.71269,-5.22107 10.49162,-7.0706 18.54097,-7.17569 7.18013,-0.0937 3.54807,-1.76115 -4.0503,-1.85942 -9.47735,-0.12258 -18.60817,6.30546 -23.14324,16.2927 -2.94341,6.48207 -2.22806,8.89617 0.82758,2.79285 1.47157,-2.93929 4.99281,-7.46198 7.82499,-10.05044 z m 52.83884,9.27205 C 312.70136,239.65245 316,237.39724 316,235.77259 c 0,-0.50458 -5.3789,1.89227 -11.95311,5.32635 -6.57421,3.43408 -11.72265,6.61667 -11.44098,7.07242 0.77979,1.26174 1.07256,1.15897 10.80798,-3.79391 z M 191.33934,184.2226 c 5.88024,-6.20451 6.02016,-6.21578 78.09216,-6.28599 50.84121,-0.0495 64.52187,-0.32184 62.5685,-1.24542 -3.52142,-1.66499 -119.73394,-2.24982 -129.23158,-0.65035 -10.07536,1.69676 -15.55944,6.29337 -17.25084,14.45916 l -0.6214,3 1.66853,-3 c 0.91768,-1.65 3.06627,-4.47483 4.77463,-6.2774 z m -34.2736,-31.25778 c 1.75152,-0.93739 1.93297,-2.1892 1.92061,-13.25 C 158.96973,124.8533 158.56676,123 155.35198,123 c -3.6789,0 -3.7824,-2.26197 -0.33708,-7.36698 L 158.14169,111 l 11.9949,0 c 6.59719,0 12.85392,-0.45974 13.90384,-1.02163 1.67567,-0.8968 2.2691,-0.30815 4.85632,4.81708 3.17097,6.28167 3.00735,7.80589 -0.89675,8.35373 -2.49364,0.34993 -2.50141,0.38517 -3.05491,13.85082 -0.74386,18.0966 -2.13353,17 21.54325,17 15.22992,0 18.4793,-0.25609 19.54516,-1.54036 0.91642,-1.10422 1.21606,-5.09247 1.05828,-14.08543 -0.12106,-6.89979 -0.45484,-13.15676 -0.74173,-13.90439 -0.2869,-0.74762 -2.16678,-1.49668 -4.17752,-1.66457 -2.76088,-0.23052 -3.72942,-0.79488 -3.95621,-2.30525 -0.71067,-4.73294 -32.58155,-97.415116 -33.59589,-97.698616 -0.61624,-0.172232 -6.94193,-0.0855 -14.05711,0.192734 L 157.62665,23.5 l -16.27363,48 c -8.9505,26.4 -16.67712,48.675 -17.17027,49.5 -0.49315,0.825 -2.19851,1.72808 -3.78969,2.00685 l -2.89306,0.50684 -0.53611,13.49316 c -0.43166,10.86439 -0.25535,13.83409 0.90499,15.24315 1.27466,1.54789 3.50964,1.75 19.35185,1.75 10.43399,0 18.7182,-0.43213 19.84501,-1.03518 z m 5.32221,-60.396212 c -0.3021,-0.787266 0.3586,-2.699766 1.46823,-4.25 1.10963,-1.550234 3.24354,-6.818909 4.74203,-11.708165 3.13895,-10.241732 3.75214,-10.136708 7.50668,1.285695 1.19387,3.632124 3.02569,8.306795 4.07071,10.388158 1.04502,2.081364 1.63146,4.218864 1.3032,4.75 C 181.15054,93.565433 176.8444,94 171.9096,94 c -6.86181,0 -9.10158,-0.336704 -9.52165,-1.431392 z M 13.010941,346.04009 C 9.9919587,344.99805 6.5198715,342.98057 5.2951916,341.55679 0.57081455,336.06438 0.5,334.87433 0.5,260.97302 l 0,-69.52698 2.5579553,-4.97031 c 2.1096594,-4.09923 3.5868864,-5.49654 8.4289877,-7.97302 l 5.871032,-3.00271 65.071012,0 c 60.781053,0 65.385303,0.12126 69.838213,1.83928 2.76422,1.06648 5.75838,3.16729 7.12624,5 5.14681,6.8959 5.10656,6.27593 5.10656,78.66072 0,74.34276 0.0939,73.12306 -6.165,80.05096 -6.34716,7.02554 -5.54487,6.95326 -76.766501,6.91639 -59.2523,-0.0307 -63.400635,-0.14728 -68.557558,-1.92726 z m 91.313579,-22.8896 c 18.42225,-4.96027 29.36781,-15.19499 31.28004,-29.24862 1.28952,-9.47705 -4.1467,-20.53727 -13.63342,-27.73778 -2.45913,-1.86651 -4.61015,-3.9833 -4.78005,-4.704 -0.16989,-0.72069 1.28203,-2.0653 3.22651,-2.98801 8.3601,-3.96713 14.93673,-14.97477 14.91981,-24.97208 -0.027,-15.97352 -14.16853,-29.6533 -35.18392,-34.03514 -5.6677,-1.18174 -13.873677,-1.43762 -39.405933,-1.22871 L 28.5,198.5 l 0,12.99018 0,12.99018 3,0.51964 3,0.51964 0,35.98036 0,35.98036 -3,0.51813 -3,0.51813 -0.282701,12.4812 c -0.249286,11.0059 -0.07199,12.64038 1.5,13.82798 1.439418,1.08744 8.041019,1.25866 34.282701,0.88913 29.012722,-0.40854 33.339578,-0.68371 40.32452,-2.56444 z M 61.666667,297.33333 C 61.3,296.96667 61,290.69322 61,283.39235 c 0,-9.53175 0.352426,-13.49689 1.25,-14.06376 2.13083,-1.34574 22.318472,-1.60905 29.359351,-0.38293 3.677212,0.64036 8.376885,2.02699 10.443719,3.08141 13.20241,6.73537 9.15814,20.35775 -7.312295,24.63013 -5.331577,1.38299 -31.825631,1.92461 -33.074108,0.67613 z m 0,-43 C 61.3,253.96667 61,247.65254 61,240.30195 c 0,-11.78788 0.206474,-13.44951 1.75,-14.08333 0.9625,-0.39524 8.5,-0.69229 16.75,-0.66011 13.444373,0.0524 15.546863,0.29959 20.27308,2.38308 15.75563,6.94563 12.64357,21.39901 -5.528337,25.67529 -5.874953,1.38252 -31.35173,1.9428 -32.578076,0.71645 z"
       id="path3007"
       inkscape:connector-curvature="0" />
    <path
       style="fill:#e0c416"
       d="m 200.34024,347.05998 c -7.64722,-1.86468 -13.28557,-7.42953 -15.36968,-15.16932 -0.6656,-2.47185 -0.92792,-27.23471 -0.74788,-70.59896 0.30827,-74.24541 -0.13582,-69.43305 7.112,-77.0691 5.90051,-6.21657 5.97643,-6.2226 78.37894,-6.2226 75.35192,0 70.74124,-0.53525 75.0759,8.71549 L 347.5,192.5 l 0,69 0,69 -3,5.98487 c -2.51676,5.02084 -3.80087,6.39001 -7.97189,8.5 l -4.97189,2.51513 -64.02811,0.16522 c -35.21546,0.0909 -65.45,-0.18148 -67.18787,-0.60524 z m 81.71758,-21.34726 c 13.82342,-4.71259 24.28631,-13.37641 30.71097,-25.4303 3.82426,-7.17505 3.99291,-9.23645 0.98121,-11.99369 -3.27528,-2.99855 -20.35472,-11.65106 -21.54558,-10.91507 -0.55745,0.34452 -2.39055,3.06633 -4.07356,6.04847 -6.88886,12.20637 -21.62123,17.53192 -32.69907,11.82025 -8.49804,-4.38154 -15.05982,-14.30338 -16.22917,-24.53956 -1.75091,-15.32704 1.98093,-27.01411 11.36438,-35.59006 5.86073,-5.35638 10.59478,-7.11995 19.04902,-7.09631 6.93334,0.0194 12.7145,2.80468 15.85441,7.63846 3.38372,5.20913 5.89868,9.80781 5.74187,10.49918 -0.0816,0.35975 0.49938,1.19166 1.29105,1.84869 1.15471,0.95833 3.27459,0.26081 10.71803,-3.52664 C 313.32726,239.33396 316,237.4189 316,235.32005 c 0,-0.75349 -1.60829,-4.56361 -3.57397,-8.46694 -6.47515,-12.85793 -17.63912,-22.42003 -31.30692,-26.81481 -9.31867,-2.99635 -25.54392,-2.5852 -34.16962,0.86587 -14.19351,5.6787 -26.19055,19.0993 -31.62834,35.38132 -2.56874,7.69141 -2.74488,9.32891 -2.76604,25.71451 -0.0214,16.59889 0.12096,17.91193 2.76515,25.5 6.30998,18.10778 20.49259,32.28046 38.50784,38.48088 8.01088,2.75715 19.68074,2.6463 28.22972,-0.26816 z M 16.589293,345.9028 C 10.004112,344.32277 6.3228592,341.35791 3.298101,335.19817 L 0.5,329.5 0.23279599,264 -0.03440802,198.5 3.732796,191 C 7.0773188,184.3415 8.0610012,183.2195 12.5,181 l 5,-2.5 65,-0.22067 c 74.94396,-0.25444 72.93986,-0.45411 77.4934,7.72067 l 2.5066,4.5 0,71 0,71 -2.73587,4.65395 c -1.96904,3.34952 -4.07117,5.31151 -7.5,7 L 147.5,346.5 84,346.67056 c -36.763194,0.0987 -65.146611,-0.22452 -67.410707,-0.76776 z M 102.5,326.57568 c 14.64396,-3.24206 28.33411,-12.64047 32.88475,-22.57568 1.45411,-3.1747 2.06264,-6.56158 2.06623,-11.5 0.007,-10.06415 -3.6822,-17.74442 -12.23045,-25.45954 l -6.44048,-5.81276 3.54401,-1.16963 c 4.22643,-1.39485 10.1874,-7.6994 12.74361,-13.47815 2.91354,-6.58654 3.31305,-11.53848 1.50557,-18.66172 -3.67296,-14.47506 -14.61273,-24.01456 -33.40416,-29.12849 -6.808505,-1.85288 -11.233964,-2.13814 -39.437798,-2.5421 -17.472795,-0.25027 -32.897258,-0.17178 -34.276586,0.1744 l -2.507867,0.62944 0.276585,14.72427 L 27.5,226.5 l 2.74756,0.31619 c 1.848208,0.21269 2.921659,1.03101 3.279442,2.5 0.292535,1.20109 0.406133,16.80453 0.25244,34.67429 L 33.5,296.48096 l -3,0.51934 -3,0.51934 0,14.46065 c 0,14.40069 0.01037,14.4662 2.5,15.80063 3.667602,1.96582 62.602013,0.98609 72.5,-1.20524 z M 63.426246,296.39647 c -0.711064,-0.29511 -0.931258,-4.23733 -0.651891,-11.67105 0.327665,-8.71889 0.77757,-11.50453 2.014884,-12.47542 2.042247,-1.6025 23.028319,-1.69109 30.41154,-0.12839 7.556181,1.59932 10.751021,3.51879 12.391421,7.44481 1.24216,2.97291 1.24379,3.89036 0.0121,6.83816 -1.8091,4.32978 -8.13388,8.08343 -16.037979,9.51827 -5.735305,1.04114 -25.95278,1.38141 -28.140095,0.47362 z m 0.500605,-43.05174 c -2.334847,-0.6282 -1.512543,-22.2121 0.921258,-24.18125 1.267124,-1.02522 5.145769,-1.24348 16.651891,-0.93704 18.08297,0.48159 23.53449,2.21852 26.07936,8.30925 1.38228,3.30826 1.35797,3.93023 -0.28378,7.25948 -2.19839,4.45807 -8.3456,7.8271 -16.810668,9.21323 -5.843292,0.95683 -23.424358,1.17947 -26.558061,0.33633 z M 123,171.0463 c -19.93974,-0.61294 -22.68485,-1.13333 -26.8602,-5.09189 -5.269494,-4.99589 -5.192853,-3.86223 -5.153664,-76.232442 C 91.010595,44.55402 91.379135,21.18769 92.10947,18.5 93.669209,12.760039 97.586692,8.0843603 102.89153,5.6311629 107.41302,3.5402257 108.66081,3.4944802 169,3.2075601 237.54055,2.8816415 242.51341,3.197086 247.15427,8.1651433 251.9901,13.341915 252.15308,16.186658 251.81426,89.5 l -0.31426,68 -2.73587,4.65395 c -1.96904,3.34952 -4.07117,5.31151 -7.5,7 L 236.5,171.5 l -47,0.0729 c -25.85,0.0401 -55.775,-0.19688 -66.5,-0.52657 z m 34.06574,-18.08148 C 158.81844,152.0268 159,150.7657 159,139.52992 159,125.93504 158.1209,122 155.08377,122 c -3.26148,0 -3.26845,-1.62609 -0.0276,-6.42819 L 158.14169,111 l 11.9949,0 c 6.59719,0 12.87867,-0.47298 13.95884,-1.05107 1.70812,-0.91416 2.16011,-0.58158 3.46989,2.55316 0.82827,1.98233 1.76423,4.89566 2.07991,6.47407 0.51538,2.57689 0.28206,2.90322 -2.28563,3.19684 l -2.8596,0.327 -0.28567,14 c -0.37957,18.60167 -1.78177,17.5 22.27401,17.5 15.22992,0 18.4793,-0.25609 19.54516,-1.54036 1.52653,-1.83936 1.41411,-25.75476 -0.13467,-28.64868 C 225.36577,122.81493 223.87557,122 222.58726,122 c -1.2883,0 -2.77387,-0.5625 -3.30126,-1.25 -0.52739,-0.6875 -8.25849,-22.835218 -17.18022,-49.217151 -8.92173,-26.381933 -16.70043,-48.544433 -17.286,-49.25 -1.47272,-1.774514 -24.7853,-1.802871 -27.0053,-0.03285 -0.86228,0.6875 -8.87835,22.85 -17.81349,49.25 -8.93514,26.4 -16.67358,48.535791 -17.19653,49.190641 -0.52295,0.65485 -2.15539,1.32985 -3.62764,1.5 L 116.5,122.5 116.22087,136.38908 C 115.84287,155.19814 114.41417,154 137.22073,154 c 10.43399,0 18.7182,-0.43213 19.84501,-1.03518 z m 5.4475,-60.943396 c -0.33264,-0.538218 0.28739,-2.225718 1.37783,-3.75 1.09044,-1.524283 3.19786,-6.737103 4.68315,-11.584043 1.4853,-4.84694 3.06526,-8.44694 3.51103,-8 C 173.14869,69.753632 180,89.465125 180,91.458461 180,92.725429 178.49654,93 171.55902,93 c -4.64254,0 -8.71314,-0.440359 -9.04578,-0.978576 z"
       id="path3005"
       inkscape:connector-curvature="0" />
    <path
       style="fill:#de4926"
       d="m 200.5,347.08252 c -4.28347,-1.06792 -8.68648,-3.51957 -11.00236,-6.12624 -1.35691,-1.52729 -1.51652,-2.06039 -0.49764,-1.66206 11.00945,4.30409 9.24467,4.20578 75.5,4.20578 68.32191,0 68.88766,-0.0415 74.29689,-5.45074 5.67327,-5.67327 5.70311,-6.10423 5.70311,-82.37009 0,-62.87223 0.14928,-69.49035 1.5,-66.5 1.28676,2.84873 1.5,13.13009 1.5,72.32083 l 0,69 -3,5.98487 c -2.51676,5.02084 -3.80087,6.39001 -7.97189,8.5 l -4.97189,2.51513 -64.02811,0.16522 C 232.31265,347.7561 202.15,347.49388 200.5,347.08252 z M 16.589293,345.9028 C 10.004112,344.32277 6.3228592,341.35791 3.298101,335.19817 L 0.5,329.5 0.23279599,264 -0.03440802,198.5 3.732796,191 C 7.0773188,184.3415 8.0610012,183.2195 12.5,181 l 5,-2.5 65,-0.22067 c 74.94396,-0.25444 72.93986,-0.45411 77.4934,7.72067 l 2.5066,4.5 0,71 0,71 -2.73587,4.65395 c -1.96904,3.34952 -4.07117,5.31151 -7.5,7 L 147.5,346.5 84,346.67056 c -36.763194,0.0987 -65.146611,-0.22452 -67.410707,-0.76776 z M 102.5,326.57568 c 14.64396,-3.24206 28.33411,-12.64047 32.88475,-22.57568 1.45411,-3.1747 2.06264,-6.56158 2.06623,-11.5 0.007,-10.06415 -3.6822,-17.74442 -12.23045,-25.45954 l -6.44048,-5.81276 3.54401,-1.16963 c 4.22643,-1.39485 10.1874,-7.6994 12.74361,-13.47815 2.91354,-6.58654 3.31305,-11.53848 1.50557,-18.66172 -3.67296,-14.47506 -14.61273,-24.01456 -33.40416,-29.12849 -6.808505,-1.85288 -11.233964,-2.13814 -39.437798,-2.5421 -17.472795,-0.25027 -32.897258,-0.17178 -34.276586,0.1744 l -2.507867,0.62944 0.276585,14.72427 L 27.5,226.5 l 2.74756,0.31619 c 1.848208,0.21269 2.921659,1.03101 3.279442,2.5 0.292535,1.20109 0.406133,16.80453 0.25244,34.67429 L 33.5,296.48096 l -3,0.51934 -3,0.51934 0,14.46065 c 0,14.40069 0.01037,14.4662 2.5,15.80063 3.667602,1.96582 62.602013,0.98609 72.5,-1.20524 z M 63.426246,296.39647 c -0.711064,-0.29511 -0.931258,-4.23733 -0.651891,-11.67105 0.327665,-8.71889 0.77757,-11.50453 2.014884,-12.47542 2.042247,-1.6025 23.028319,-1.69109 30.41154,-0.12839 7.556181,1.59932 10.751021,3.51879 12.391421,7.44481 1.24216,2.97291 1.24379,3.89036 0.0121,6.83816 -1.8091,4.32978 -8.13388,8.08343 -16.037979,9.51827 -5.735305,1.04114 -25.95278,1.38141 -28.140095,0.47362 z m 0.500605,-43.05174 c -2.334847,-0.6282 -1.512543,-22.2121 0.921258,-24.18125 1.267124,-1.02522 5.145769,-1.24348 16.651891,-0.93704 18.08297,0.48159 23.53449,2.21852 26.07936,8.30925 1.38228,3.30826 1.35797,3.93023 -0.28378,7.25948 -2.19839,4.45807 -8.3456,7.8271 -16.810668,9.21323 -5.843292,0.95683 -23.424358,1.17947 -26.558061,0.33633 z M 260.5,297.10851 c -4.51671,-1.14606 -7.60507,-2.96745 -11.75,-6.92969 -4.63402,-4.42977 -4.91517,-6.16932 -0.44617,-2.76065 13.90636,10.6069 32.00029,5.74711 38.68457,-10.39016 2.08331,-5.02957 4.94302,-4.93861 15.34999,0.48823 10.72723,5.59383 12.66161,7.09007 12.66161,9.79374 0,1.82358 -0.15436,1.86443 -1.75,0.46308 -3.05672,-2.68452 -19.98991,-11.05184 -21.04558,-10.3994 -0.55745,0.34452 -2.39055,3.06633 -4.07356,6.04847 -5.75405,10.19561 -17.8247,16.17457 -27.63086,13.68638 z M 214.34276,288.25 c -4.32944,-9.77328 -5.58177,-18.11991 -5.06386,-33.75 0.51808,-15.63512 2.62394,-23.73105 8.90051,-34.21783 11.66696,-19.49296 34.95519,-30.39836 55.73795,-26.10095 4.27858,0.88471 10.41387,2.89337 13.63397,4.46367 6.5494,3.19386 15.94336,11.40499 18.87989,16.50263 1.63565,2.8394 0.91432,2.40646 -4.71321,-2.82888 -6.85163,-6.37412 -15.63413,-11.27318 -23.94967,-13.35962 -7.27095,-1.82434 -24.01996,-0.7647 -30.81885,1.94979 -14.18334,5.66277 -26.18966,19.09199 -31.62834,35.37668 -2.56883,7.69167 -2.74486,9.32836 -2.76565,25.71451 -0.0206,16.24523 0.16114,18.01984 2.53485,24.75 1.40639,3.9875 2.38663,7.25 2.17833,7.25 -0.20831,0 -1.52497,-2.5875 -2.92592,-5.75 z M 123,171.0463 c -19.93974,-0.61294 -22.68485,-1.13333 -26.8602,-5.09189 -5.269494,-4.99589 -5.192853,-3.86223 -5.153664,-76.232442 C 91.010595,44.55402 91.379135,21.18769 92.10947,18.5 93.669209,12.760039 97.586692,8.0843603 102.89153,5.6311629 107.41302,3.5402257 108.66081,3.4944802 169,3.2075601 237.54055,2.8816415 242.51341,3.197086 247.15427,8.1651433 251.9901,13.341915 252.15308,16.186658 251.81426,89.5 l -0.31426,68 -2.73587,4.65395 c -1.96904,3.34952 -4.07117,5.31151 -7.5,7 L 236.5,171.5 l -47,0.0729 c -25.85,0.0401 -55.775,-0.19688 -66.5,-0.52657 z m 34.06574,-18.08148 C 158.81844,152.0268 159,150.7657 159,139.52992 159,125.93504 158.1209,122 155.08377,122 c -3.26148,0 -3.26845,-1.62609 -0.0276,-6.42819 L 158.14169,111 l 11.9949,0 c 6.59719,0 12.87867,-0.47298 13.95884,-1.05107 1.70812,-0.91416 2.16011,-0.58158 3.46989,2.55316 0.82827,1.98233 1.76423,4.89566 2.07991,6.47407 0.51538,2.57689 0.28206,2.90322 -2.28563,3.19684 l -2.8596,0.327 -0.28567,14 c -0.37957,18.60167 -1.78177,17.5 22.27401,17.5 15.22992,0 18.4793,-0.25609 19.54516,-1.54036 1.52653,-1.83936 1.41411,-25.75476 -0.13467,-28.64868 C 225.36577,122.81493 223.87557,122 222.58726,122 c -1.2883,0 -2.77387,-0.5625 -3.30126,-1.25 -0.52739,-0.6875 -8.25849,-22.835218 -17.18022,-49.217151 -8.92173,-26.381933 -16.70043,-48.544433 -17.286,-49.25 -1.47272,-1.774514 -24.7853,-1.802871 -27.0053,-0.03285 -0.86228,0.6875 -8.87835,22.85 -17.81349,49.25 -8.93514,26.4 -16.67358,48.535791 -17.19653,49.190641 -0.52295,0.65485 -2.15539,1.32985 -3.62764,1.5 L 116.5,122.5 116.22087,136.38908 C 115.84287,155.19814 114.41417,154 137.22073,154 c 10.43399,0 18.7182,-0.43213 19.84501,-1.03518 z m 5.4475,-60.943396 c -0.33264,-0.538218 0.28739,-2.225718 1.37783,-3.75 1.09044,-1.524283 3.19786,-6.737103 4.68315,-11.584043 1.4853,-4.84694 3.06526,-8.44694 3.51103,-8 C 173.14869,69.753632 180,89.465125 180,91.458461 180,92.725429 178.49654,93 171.55902,93 c -4.64254,0 -8.71314,-0.440359 -9.04578,-0.978576 z"
       id="path3003"
       inkscape:connector-curvature="0" />
    <path
       style="fill:#07c42f"
       d="m 200.5,347.08252 c -4.28347,-1.06792 -8.68648,-3.51957 -11.00236,-6.12624 -1.35691,-1.52729 -1.51652,-2.06039 -0.49764,-1.66206 11.00945,4.30409 9.24467,4.20578 75.5,4.20578 68.32191,0 68.88766,-0.0415 74.29689,-5.45074 5.67327,-5.67327 5.70311,-6.10423 5.70311,-82.37009 0,-62.87223 0.14928,-69.49035 1.5,-66.5 1.28676,2.84873 1.5,13.13009 1.5,72.32083 l 0,69 -3,5.98487 c -2.51676,5.02084 -3.80087,6.39001 -7.97189,8.5 l -4.97189,2.51513 -64.02811,0.16522 C 232.31265,347.7561 202.15,347.49388 200.5,347.08252 z M 16.589293,345.9028 C 10.004112,344.32277 6.3228592,341.35791 3.298101,335.19817 L 0.5,329.5 0.23279599,264 -0.03440802,198.5 3.732796,191 C 7.0773188,184.3415 8.0610012,183.2195 12.5,181 l 5,-2.5 65,-0.22067 c 74.94396,-0.25444 72.93986,-0.45411 77.4934,7.72067 l 2.5066,4.5 0,71 0,71 -2.73587,4.65395 c -1.96904,3.34952 -4.07117,5.31151 -7.5,7 L 147.5,346.5 84,346.67056 c -36.763194,0.0987 -65.146611,-0.22452 -67.410707,-0.76776 z M 102.5,326.57568 c 14.64396,-3.24206 28.33411,-12.64047 32.88475,-22.57568 1.45411,-3.1747 2.06264,-6.56158 2.06623,-11.5 0.007,-10.06415 -3.6822,-17.74442 -12.23045,-25.45954 l -6.44048,-5.81276 3.54401,-1.16963 c 4.22643,-1.39485 10.1874,-7.6994 12.74361,-13.47815 2.91354,-6.58654 3.31305,-11.53848 1.50557,-18.66172 -3.67296,-14.47506 -14.61273,-24.01456 -33.40416,-29.12849 -6.808505,-1.85288 -11.233964,-2.13814 -39.437798,-2.5421 -17.472795,-0.25027 -32.897258,-0.17178 -34.276586,0.1744 l -2.507867,0.62944 0.276585,14.72427 L 27.5,226.5 l 2.74756,0.31619 c 1.848208,0.21269 2.921659,1.03101 3.279442,2.5 0.292535,1.20109 0.406133,16.80453 0.25244,34.67429 L 33.5,296.48096 l -3,0.51934 -3,0.51934 0,14.46065 c 0,14.40069 0.01037,14.4662 2.5,15.80063 3.667602,1.96582 62.602013,0.98609 72.5,-1.20524 z M 63.426246,296.39647 c -0.711064,-0.29511 -0.931258,-4.23733 -0.651891,-11.67105 0.327665,-8.71889 0.77757,-11.50453 2.014884,-12.47542 2.042247,-1.6025 23.028319,-1.69109 30.41154,-0.12839 7.556181,1.59932 10.751021,3.51879 12.391421,7.44481 1.24216,2.97291 1.24379,3.89036 0.0121,6.83816 -1.8091,4.32978 -8.13388,8.08343 -16.037979,9.51827 -5.735305,1.04114 -25.95278,1.38141 -28.140095,0.47362 z m 0.500605,-43.05174 c -2.334847,-0.6282 -1.512543,-22.2121 0.921258,-24.18125 1.267124,-1.02522 5.145769,-1.24348 16.651891,-0.93704 18.08297,0.48159 23.53449,2.21852 26.07936,8.30925 1.38228,3.30826 1.35797,3.93023 -0.28378,7.25948 -2.19839,4.45807 -8.3456,7.8271 -16.810668,9.21323 -5.843292,0.95683 -23.424358,1.17947 -26.558061,0.33633 z M 260.5,297.10851 c -4.51671,-1.14606 -7.60507,-2.96745 -11.75,-6.92969 -4.63402,-4.42977 -4.91517,-6.16932 -0.44617,-2.76065 13.90636,10.6069 32.00029,5.74711 38.68457,-10.39016 2.08331,-5.02957 4.94302,-4.93861 15.34999,0.48823 10.72723,5.59383 12.66161,7.09007 12.66161,9.79374 0,1.82358 -0.15436,1.86443 -1.75,0.46308 -3.05672,-2.68452 -19.98991,-11.05184 -21.04558,-10.3994 -0.55745,0.34452 -2.39055,3.06633 -4.07356,6.04847 -5.75405,10.19561 -17.8247,16.17457 -27.63086,13.68638 z M 214.34276,288.25 c -4.32944,-9.77328 -5.58177,-18.11991 -5.06386,-33.75 0.51808,-15.63512 2.62394,-23.73105 8.90051,-34.21783 11.66696,-19.49296 34.95519,-30.39836 55.73795,-26.10095 4.27858,0.88471 10.41387,2.89337 13.63397,4.46367 6.5494,3.19386 15.94336,11.40499 18.87989,16.50263 1.63565,2.8394 0.91432,2.40646 -4.71321,-2.82888 -6.85163,-6.37412 -15.63413,-11.27318 -23.94967,-13.35962 -7.27095,-1.82434 -24.01996,-0.7647 -30.81885,1.94979 -14.18334,5.66277 -26.18966,19.09199 -31.62834,35.37668 -2.56883,7.69167 -2.74486,9.32836 -2.76565,25.71451 -0.0206,16.24523 0.16114,18.01984 2.53485,24.75 1.40639,3.9875 2.38663,7.25 2.17833,7.25 -0.20831,0 -1.52497,-2.5875 -2.92592,-5.75 z M 123,171.0463 c -11.61053,-0.3569 -20.61262,-1.0844 -22.25,-1.79811 -4.925075,-2.14677 -2.902445,-2.93894 3.92108,-1.53571 5.32982,1.09606 19.15247,1.31315 68.75,1.07971 54.73159,-0.25761 62.49316,-0.48406 65.57892,-1.91331 4.60392,-2.13243 7.53667,-5.43191 9.69502,-10.90735 1.59575,-4.04817 1.81622,-10.53104 2.32863,-68.47153 l 0.56599,-64 -0.0448,67 -0.0448,67 -2.73587,4.65395 c -1.96904,3.34952 -4.07117,5.31151 -7.5,7 L 236.5,171.5 l -47,0.0729 c -25.85,0.0401 -55.775,-0.19688 -66.5,-0.52657 z m 59.75,-25.62459 c -0.4125,-0.41527 -0.75,-5.6505 -0.75,-11.63383 0,-10.21699 0.14932,-11.02811 2.45455,-13.33333 2.94673,-2.94674 5.54545,-3.19088 5.54545,-0.52097 0,1.36598 -0.80725,2.02646 -2.75,2.25 L 184.5,122.5 184,134.33838 c -0.275,6.5111 -0.8375,11.4986 -1.25,11.08333 z M 114,133.65499 c 0,-9.72087 0.2618,-11.58194 1.82874,-13 1.00581,-0.91025 2.30071,-1.65499 2.87756,-1.65499 0.57684,0 1.57766,-0.63722 2.22402,-1.41605 0.64637,-0.77882 8.34032,-22.467669 17.09767,-48.197438 10.01206,-29.416222 16.68337,-47.543303 17.97236,-48.833954 1.77857,-1.780874 3.53567,-2.0943 13.27478,-2.367917 8.90973,-0.250316 11.63737,9.39e-4 13.22487,1.218197 1.83008,1.403264 0.933,1.536257 -10.55887,1.565359 -8.50113,0.02153 -13.06542,0.435675 -14.12665,1.281803 -0.86228,0.6875 -8.87835,22.85 -17.81349,49.25 -8.93514,26.4 -16.67358,48.53579 -17.19653,49.19064 -0.52295,0.65485 -2.15539,1.32985 -3.62764,1.5 L 116.5,122.5 116.21725,133.75 C 115.84286,148.64606 114,148.56709 114,133.65499 z M 220.25,120.75 c 0.22917,-0.6875 1.01667,-1.25 1.75,-1.25 0.73333,0 1.52083,0.5625 1.75,1.25 0.24786,0.74359 -0.46111,1.25 -1.75,1.25 -1.28889,0 -1.99786,-0.50641 -1.75,-1.25 z M 164,91.968615 c 0,-1.39767 1.36734,-1.733963 9.25,-2.275008 6.10974,-0.419356 6.75,-0.284518 6.75,1.421546 C 180,92.804545 179.17042,93 172,93 c -4.82896,0 -8,-0.40882 -8,-1.031385 z"
       id="path3001"
       inkscape:connector-curvature="0" />
    <path
       style="fill:#505929"
       d="m 200.5,347.08252 c -4.28347,-1.06792 -8.68648,-3.51957 -11.00236,-6.12624 -1.35691,-1.52729 -1.51652,-2.06039 -0.49764,-1.66206 11.00945,4.30409 9.24467,4.20578 75.5,4.20578 68.32191,0 68.88766,-0.0415 74.29689,-5.45074 5.67327,-5.67327 5.70311,-6.10423 5.70311,-82.37009 0,-62.87223 0.14928,-69.49035 1.5,-66.5 1.28676,2.84873 1.5,13.13009 1.5,72.32083 l 0,69 -3,5.98487 c -2.51676,5.02084 -3.80087,6.39001 -7.97189,8.5 l -4.97189,2.51513 -64.02811,0.16522 C 232.31265,347.7561 202.15,347.49388 200.5,347.08252 z M 16.589293,345.9028 C 11.825251,344.75973 6.4201506,341.53728 5.5756849,339.33664 4.5465802,336.65483 5.6792865,336.6101 11.219569,339.11376 L 16.5,341.5 l 65,0 c 61.70125,0 65.19284,-0.0958 68.79988,-1.88761 2.41703,-1.20068 4.60054,-3.38419 6,-6 L 158.5,329.5 l 0,-71.75005 c 0,-39.46253 0.28291,-71.75003 0.62868,-71.75 0.34577,3e-5 1.24577,1.46255 2,3.25005 1.11775,2.64904 1.37132,16.19378 1.37132,73.25 l 0,70 -2.73587,4.65395 c -1.96904,3.34952 -4.07117,5.31151 -7.5,7 L 147.5,346.5 84,346.67056 c -36.763194,0.0987 -65.146611,-0.22452 -67.410707,-0.76776 z m 7.077374,-21.56947 C 23.3,323.96667 23,317.44167 23,309.83333 c 0,-14.7517 -0.223129,-13.98622 5.428324,-18.62276 1.364049,-1.11908 1.573699,-5.21436 1.586989,-31 0.0087,-16.86031 0.423194,-30.35573 0.958359,-31.20221 2.603049,-4.11731 3.048259,1.31543 2.79004,34.04582 L 33.5,296.48093 l -3,0.51764 -3,0.51765 -0.245945,11.49189 c -0.315601,14.74662 -1.045953,17.86666 -3.587388,15.32522 z M 260.5,297.10851 c -4.51671,-1.14606 -7.60507,-2.96745 -11.75,-6.92969 -4.63402,-4.42977 -4.91517,-6.16932 -0.44617,-2.76065 13.90636,10.6069 32.00029,5.74711 38.68457,-10.39016 2.08331,-5.02957 4.94302,-4.93861 15.34999,0.48823 10.72723,5.59383 12.66161,7.09007 12.66161,9.79374 0,1.82358 -0.15436,1.86443 -1.75,0.46308 -3.05672,-2.68452 -19.98991,-11.05184 -21.04558,-10.3994 -0.55745,0.34452 -2.39055,3.06633 -4.07356,6.04847 -5.75405,10.19561 -17.8247,16.17457 -27.63086,13.68638 z M 63.322898,295.39908 c -1.002203,-2.61171 1.631638,-3.36759 11.790612,-3.38377 17.389686,-0.0277 26.1136,-2.81305 28.79065,-9.19224 1.81082,-4.315 2.57687,-4.66128 4.08362,-1.84591 1.72758,3.22802 -1.07888,8.41018 -6.14688,11.35027 C 96.175352,295.61417 88.1509,297 74.784956,297 65.761087,297 63.833941,296.73083 63.322898,295.39908 z M 214.34276,288.25 c -4.32944,-9.77328 -5.58177,-18.11991 -5.06386,-33.75 0.51808,-15.63512 2.62394,-23.73105 8.90051,-34.21783 11.66696,-19.49296 34.95519,-30.39836 55.73795,-26.10095 4.27858,0.88471 10.41387,2.89337 13.63397,4.46367 6.5494,3.19386 15.94336,11.40499 18.87989,16.50263 1.63565,2.8394 0.91432,2.40646 -4.71321,-2.82888 -6.85163,-6.37412 -15.63413,-11.27318 -23.94967,-13.35962 -7.27095,-1.82434 -24.01996,-0.7647 -30.81885,1.94979 -14.18334,5.66277 -26.18966,19.09199 -31.62834,35.37668 -2.56883,7.69167 -2.74486,9.32836 -2.76565,25.71451 -0.0206,16.24523 0.16114,18.01984 2.53485,24.75 1.40639,3.9875 2.38663,7.25 2.17833,7.25 -0.20831,0 -1.52497,-2.5875 -2.92592,-5.75 z M 127.5,268.83713 C 120.50427,262.90896 119.95011,262 123.33168,262 125.97203,262 134,270.00725 134,272.64079 c 0,1.79471 0.34433,1.9962 -6.5,-3.80366 z M 64.25,253.33772 c -2.059672,-0.8311 -1.412945,-3.26592 1,-3.76485 1.2375,-0.25588 7.65,-0.65825 14.25,-0.89416 8.24316,-0.29465 13.331713,-0.97209 16.253724,-2.16389 C 100.13051,244.72967 105,239.94167 105,237.42327 c 0,-2.09491 1.7648,-1.73126 3.02492,0.6233 0.8524,1.59272 0.69388,2.8608 -0.71481,5.71819 -2.21373,4.49033 -8.335216,7.85343 -16.825198,9.24364 -6.145538,1.00632 -24.001651,1.23046 -26.234912,0.32932 z M 23.657991,224.32466 C 23.296096,223.96276 23,217.28641 23,209.48832 c 0,-12.46576 0.220892,-14.37825 1.828741,-15.83333 1.626843,-1.47228 5.573726,-1.65307 35.75,-1.63763 36.685438,0.0188 42.588829,0.62367 53.114089,5.44229 7.46462,3.41742 14.43654,8.67653 17.65048,13.31425 4.28663,6.18561 3.0725,6.75668 -2.95102,1.388 -7.14468,-6.36795 -15.19443,-10.64832 -25.07834,-13.33514 -6.982811,-1.89819 -11.193063,-2.17252 -39.582668,-2.57915 -17.472795,-0.25027 -32.885295,-0.17479 -34.25,0.16773 C 27.000506,197.03798 27,197.04073 27,209.89661 c 0,9.53703 -0.346653,13.1462 -1.342009,13.97227 -0.738105,0.61257 -1.638105,0.81767 -2,0.45578 z M 123,171.0463 c -11.61053,-0.3569 -20.61262,-1.0844 -22.25,-1.79811 -4.925075,-2.14677 -2.902445,-2.93894 3.92108,-1.53571 5.32982,1.09606 19.15247,1.31315 68.75,1.07971 54.73159,-0.25761 62.49316,-0.48406 65.57892,-1.91331 4.60392,-2.13243 7.53667,-5.43191 9.69502,-10.90735 1.59575,-4.04817 1.81622,-10.53104 2.32863,-68.47153 l 0.56599,-64 -0.0448,67 -0.0448,67 -2.73587,4.65395 c -1.96904,3.34952 -4.07117,5.31151 -7.5,7 L 236.5,171.5 l -47,0.0729 c -25.85,0.0401 -55.775,-0.19688 -66.5,-0.52657 z m 59.75,-25.62459 c -0.4125,-0.41527 -0.75,-5.6505 -0.75,-11.63383 0,-10.21699 0.14932,-11.02811 2.45455,-13.33333 2.94673,-2.94674 5.54545,-3.19088 5.54545,-0.52097 0,1.36598 -0.80725,2.02646 -2.75,2.25 L 184.5,122.5 184,134.33838 c -0.275,6.5111 -0.8375,11.4986 -1.25,11.08333 z M 114,133.65499 c 0,-9.72087 0.2618,-11.58194 1.82874,-13 1.00581,-0.91025 2.30071,-1.65499 2.87756,-1.65499 0.57684,0 1.57766,-0.63722 2.22402,-1.41605 0.64637,-0.77882 8.34032,-22.467669 17.09767,-48.197438 10.01206,-29.416222 16.68337,-47.543303 17.97236,-48.833954 1.77857,-1.780874 3.53567,-2.0943 13.27478,-2.367917 8.90973,-0.250316 11.63737,9.39e-4 13.22487,1.218197 1.83008,1.403264 0.933,1.536257 -10.55887,1.565359 -8.50113,0.02153 -13.06542,0.435675 -14.12665,1.281803 -0.86228,0.6875 -8.87835,22.85 -17.81349,49.25 -8.93514,26.4 -16.67358,48.53579 -17.19653,49.19064 -0.52295,0.65485 -2.15539,1.32985 -3.62764,1.5 L 116.5,122.5 116.21725,133.75 C 115.84286,148.64606 114,148.56709 114,133.65499 z M 220.25,120.75 c 0.22917,-0.6875 1.01667,-1.25 1.75,-1.25 0.73333,0 1.52083,0.5625 1.75,1.25 0.24786,0.74359 -0.46111,1.25 -1.75,1.25 -1.28889,0 -1.99786,-0.50641 -1.75,-1.25 z M 164,91.968615 c 0,-1.39767 1.36734,-1.733963 9.25,-2.275008 6.10974,-0.419356 6.75,-0.284518 6.75,1.421546 C 180,92.804545 179.17042,93 172,93 c -4.82896,0 -8,-0.40882 -8,-1.031385 z"
       id="path2999"
       inkscape:connector-curvature="0" />
    <path
       style="fill:#06a428"
       d="m 15.5,343.90643 c -6.0350046,-1.40029 -9.2907052,-2.91863 -9.9516835,-4.64112 -1.0003608,-2.60689 0.1687488,-2.63814 5.6712525,-0.15155 L 16.5,341.5 l 65,0 c 61.70125,0 65.19284,-0.0958 68.79988,-1.88761 2.41703,-1.20068 4.60054,-3.38419 6,-6 L 158.5,329.5 l 0,-71.75005 c 0,-39.46253 0.26527,-71.75003 0.58948,-71.75 2.7249,2.4e-4 3.00935,7.07668 2.93826,73.09605 -0.0768,71.27443 -0.0892,71.48966 -4.54136,78.28444 -0.90862,1.38674 -3.75227,3.55594 -6.31921,4.82045 L 146.5,344.5 83,344.66727 c -36.184872,0.0953 -65.220638,-0.23197 -67.5,-0.76084 z m 8.166667,-19.5731 C 23.3,323.96667 23,317.44167 23,309.83333 23,295.08163 22.776871,295.84711 28.428324,291.21057 29.792301,290.09155 30,286.0387 30,260.54236 30,231.93384 30.2547,228 32.106989,228 c 1.070165,0 1.194923,63.03692 0.127698,64.5231 -0.404078,0.5627 -1.972187,1.81058 -3.484687,2.77305 l -2.75,1.74996 0,13.97694 c 0,12.77514 -0.427849,15.21577 -2.333333,13.31028 z M 62.998989,294.35699 C 63.000634,292.49803 65.630546,292 75.445298,292 c 17.011823,0 25.796492,-2.83273 28.458862,-9.17693 1.68357,-4.01177 2.80538,-4.74356 3.69958,-2.41333 1.45346,3.78767 -5.14966,10.3461 -12.818255,12.7315 -5.118972,1.59232 -31.787732,2.61232 -31.786496,1.21575 z m 64.313721,-25.63686 c -3.403,-2.87107 -6.2155,-5.55763 -6.25,-5.97013 -0.0345,-0.4125 1.02405,-0.75 2.3523,-0.75 2.55985,0 10.58499,8.06744 10.58499,10.64079 0,0.74757 -0.1125,1.34577 -0.25,1.32934 -0.1375,-0.0164 -3.03428,-2.37893 -6.43729,-5.25 z M 62.999375,251.26905 c 8.57e-4,-1.6873 2.584734,-2.09293 16.500625,-2.59034 8.24316,-0.29465 13.331713,-0.97209 16.253724,-2.16389 C 100.13051,244.72967 105,239.94167 105,237.42327 105,236.64047 105.46412,236 106.03138,236 c 2.05797,0 2.11752,3.02242 0.12266,6.22462 -4.10738,6.59327 -10.578667,8.74376 -28.904665,9.60537 -10.979215,0.5162 -14.250482,0.38743 -14.25,-0.56094 z M 23.683333,224.35 C 23.3075,223.97417 23,217.28641 23,209.48832 c 0,-12.46576 0.220892,-14.37825 1.828741,-15.83333 1.626843,-1.47228 5.573726,-1.65307 35.75,-1.63763 36.685438,0.0188 42.588829,0.62367 53.114089,5.44229 7.46462,3.41742 14.43654,8.67653 17.65048,13.31425 4.59437,6.62967 2.90954,6.64747 -4.22218,0.0446 -8.38683,-7.76492 -14.60197,-11.25602 -24.58382,-13.80895 -6.748287,-1.72592 -11.405341,-1.95845 -41.053999,-2.04985 -18.393241,-0.0567 -33.922676,0.19382 -34.509856,0.55672 -0.684263,0.42289 -1.012643,5.50928 -0.914546,14.16572 0.139704,12.32793 -0.537034,16.50641 -2.375576,14.66787 z"
       id="path2997"
       inkscape:connector-curvature="0" />
  </g>
</svg>
